# xmcd
#
# Track frame offsets: 
#        150
#        39292
#        66154
#        92683
#        103481
#        122731
#        131998
#        136528
#        164101
#        189154
#        214488
#
# Disc length: 3434 seconds
#
# Revision: 0
# Processed by: cddbd v1.5.2PL0 Copyright (c) Steve Scherf et al.
# Submitted via: ExactAudioCopy v0.99pb5
#
DISCID=a40d680b
DTITLE=The Lumberjack Cowboy Heartbreak Trucking Company - Cherry Pie
DYEAR=2009
DGENRE=Country
TTITLE0=Cherry Pie
TTITLE1=Horses
TTITLE2=Emotional Retard
TTITLE3=Starfish and Coffee
TTITLE4=That's How Much I Need Your Love
TTITLE5=Finger On The Trigger
TTITLE6=Bananas
TTITLE7=Hurt You
TTITLE8=Let's Make A Video
TTITLE9=Waiting On You
TTITLE10=Devil
EXTD=
EXTT0=
EXTT1=
EXTT2=
EXTT3=
EXTT4=
EXTT5=
EXTT6=
EXTT7=
EXTT8=
EXTT9=
EXTT10=
PLAYORDER=
